<?xml version="1.0" encoding="UTF-8"?>
<svg id="_圖層_17" data-name="圖層 17" xmlns="http://www.w3.org/2000/svg" viewBox="0 0 2914.02 2914.02">
  <defs>
    <style>
      .cls-1 {
        fill: #006aff;
      }

      .cls-2 {
        fill: #ffc82c;
      }
    </style>
  </defs>
  <path class="cls-1" d="M2437.14,1152.71c1.18-9.92-.05-40.96-106.05-97.89-85.85-46.11-229.43-123.23-428.28-101.97-152.42,16.3-256.31,81.74-346.7,138.68-152.19,95.87-134.48,134.44-358.94,309.99-18.17,14.21-144.97,112.3-324.15,199.2-115.59,56.06-171.36,67.88-226.5,57.77-70.96-13.02-143.6-36.71-143.6-36.71-57.81-18.86-79.61-31.09-90.08-21.06-19.68,18.84,19.44,98.16,62.37,153.73,21.92,28.37,76.14,91.07,212.1,152.85,108.75,49.42,215.65,98,342.62,81.58,55.7-7.2,88.63-23.47,285.52-150.92,229.24-148.39,343.86-222.58,416.04-278.69,191.26-148.66,191.12-181.06,297.75-225.35,153.96-63.94,261.04-101.75,261.04-101.75,89.14-31.47,143-47.22,146.84-79.46Z"/>
  <path class="cls-2" d="M1333.2,1148.63c-3.39-18.76-17.74-54.69-152.35-110.13-81.56-33.59-171.95-70.81-305.91-77.5-77.59-3.87-151.54-7.56-240.65,25.63-47.19,17.58-165.4,61.6-221.44,178.31-21.84,45.48-23.68,101.33-27.36,213.01-.62,18.9-1.76,72.39,27.36,125.53,5.96,10.88,19,34.67,30.18,32.63,18.76-3.43.11-73.79,36.27-122.36,7.56-10.15,25.88-30.6,138.68-54.54,85.36-18.11,155.02-23.41,203.94-25.3,111.56-4.32,167.99-5.84,199.86,25.3,12.71,12.42,24.99,31.4,53.02,42.3,30.79,11.97,59.81,6.12,69.34,4.08,67.95-14.58,106.37-81.08,150.92-158.2,28.43-49.22,42.56-74.33,38.14-98.76Z"/>
  <path class="cls-2" d="M1821.23,1536.24c-38.79,6.43-82.96,53.19-171.31,146.71-55.39,58.63-83.06,88.4-81.58,110.13,6.65,97.57,284.96,145.87,314.07,150.92,71.22,12.36,156.81,26.29,264.22,0,102.33-25.05,170.39-73.37,215.47-106.05,79.04-57.29,143.8-104.23,177.59-191.7,20.31-52.57,13.54-124.48,0-268.29-7.32-77.8-16.21-113.87-44.23-130.56-23.25-13.85-38.94-2-109.46,0-85.35,2.42-133.04-12.92-137.42,0-2.59,7.62,13.5,19.85,45.79,43.99,59.89,44.79,77.56,46.23,91.64,67.83,23.94,36.73,7.98,86.56,0,111.45-34.35,107.21-145.11,148.37-152.82,151.1-69.47,24.6-130.8,11.01-180.44,0-138.54-30.71-156.6-97.96-231.52-85.53Z"/>
  <path d="M2644.08,1445.17c-.01-1.7-.03-4.24-.08-7.32-1.09-68.48-2.86-180.13-59.07-273.21-28.96-52.28-60.4-91.19-85.25-118.03-33.31-35.98-62.86-59.01-84.39-75.63-26.46-20.43-63.17-48.49-117.4-73.24-17.09-7.8-31.92-13.46-42.95-17.39l-42.93-11.95c-49.1-10.1-103.53-16.57-162.48-16.32-297.82,1.27-516.19,173.26-606.01,254.12-122.44-87.29-246.42-180.24-393.21-222.92-18.44-5.36-36.84-10.06-55.18-14.07-.06,0-.12-.02-.18-.04-66.63-14.51-132.51-19.87-196.68-14.59h-.1c-57.34,4.74-113.37,17.96-167.38,40.71-.12.06-.26.12-.38.16-42.04,17.76-82.89,41.28-122.21,71.08-21.73,18.86-43.45,37.75-65.16,56.61-33.09,33.76-165.24,176.27-172.78,398.49-9.33,275,179.79,447.76,206.56,471.38,25.82,23.1,52.34,43.63,79.49,61.73.06.06.12.1.18.12,232.82,155.33,510.54,131.67,765.23-6.77,62.26-33.84,119.7-77.94,181.79-109.84,33.8,28.2,301.91,246.06,597.67,212.16,48.71-5.58,179.21-20.54,293.77-107.56,51.05-38.78,91.38-86.12,100.53-97.02,51.33-61.19,79-116.57,87.79-134.87,57.66-120.22,61.01-227.16,60.82-265.79ZM413.9,1477.7c2.38-34.32-3.26-72.45,0-106.27,18.88-196.58,184.67-367.31,383.13-382.97,206.42-16.3,377.75,78.28,536.18,197.69l-215.89,172.14c-204.12-150.85-526.52-168-675.85,65.44l-27.57,53.97ZM995.84,1449.49c-93.13,99.49-236.68,154.58-376.2,146.2-22.79-1.37-110.04-23.26-116.13-47.24-7.22-28.44,54.01-93.6,76.04-110.18,111.7-84.1,278.2-71.78,393.95-14.77,12.91,6.36,23.36,12.39,30.67,16.84-1.87,2.12-4.75,5.33-8.33,9.16ZM1329.88,1793.15h-.02c-222.02,132.43-457.6,201.76-683.26,67.21-73.99-44.12-176.91-148.82-202.97-232.01-.81-2.52-1.37-8.06,2.36-7.3,37.29,39.28,97.79,66.69,150.53,76.85,299.63,57.66,591.32-237.5,813.28-398.16,4.8-3.47,9.59-6.97,14.37-10.52,25.78-19.03,51.27-38.84,76.83-58.79,90.63-70.68,181.95-142.99,288.57-188.54,208.9-89.22,446.92-76.08,596.46,109.56-164.72,9.45-318.35,102.68-451.35,193.72-125.24,85.72-270.57,213.69-426.66,328.39-58.04,42.67-117.58,83.48-178.12,119.59ZM2344.74,1365.73c59.9,64.67-49.94,148.03-105.71,170.12-104.58,41.4-208.82,24.41-307.73-23.6-4.33-5.7,102.66-80.23,113.02-87.09,49.2-32.63,128.3-86.64,186.06-90.71,36.16-2.54,88.52,3.39,114.35,31.28ZM2321.36,1830.7c-224.74,173.61-511.79,89.02-711.32-78.7l225.6-174.68c134.83,86.26,307.77,125.92,454.82,44.56,101.9-56.37,191.36-198.34,95.17-299.49-6.18-5.97-15.1-13.39-27.02-20-12.18-6.75-23.44-10.41-31.89-12.47,15.31-5.33,99.8-34,137.09,6.15,6.03,6.49,15.96,46.5,18.62,58,41.15,177.98-15.8,364.41-161.07,476.62Z"/>
</svg>