<?xml version="1.0" encoding="utf-8"?>
<!-- Generator: Adobe Illustrator 28.1.0, SVG Export Plug-In . SVG Version: 6.00 Build 0)  -->
<svg version="1.1" id="_圖層_1" xmlns="http://www.w3.org/2000/svg" xmlns:xlink="http://www.w3.org/1999/xlink" x="0px" y="0px"
	 viewBox="0 0 7576.4 2914" style="enable-background:new 0 0 7576.4 2914;" xml:space="preserve">
<style type="text/css">
	.st0{fill:#006AFF;}
	.st1{fill:#FFC82C;}
	.st2{fill:#FFFFFF;}
</style>
<g>
	<path class="st0" d="M2194.4,1209.5c1-8.8,0-36.2-93.8-86.5c-75.9-40.8-202.8-109-378.6-90.2c-134.8,14.4-226.6,72.3-306.5,122.6
		c-134.6,84.8-118.9,118.9-317.3,274.1c-16.1,12.6-128.2,99.3-286.6,176.1c-102.2,49.6-151.5,60-200.2,51.1
		c-62.7-11.5-127-32.4-127-32.4c-51.1-16.7-70.4-27.5-79.6-18.6c-17.4,16.7,17.2,86.8,55.1,135.9c19.4,25.1,67.3,80.5,187.5,135.1
		c96.2,43.7,190.7,86.6,302.9,72.1c49.2-6.4,78.4-20.8,252.4-133.4c202.7-131.2,304-196.8,367.8-246.4
		c169.1-131.4,169-160.1,263.2-199.2c136.1-56.5,230.8-90,230.8-90C2143.5,1251.9,2191.1,1238,2194.4,1209.5L2194.4,1209.5z"/>
	<path class="st1" d="M1218.5,1205.9c-3-16.6-15.7-48.3-134.7-97.4c-72.1-29.7-152-62.6-270.5-68.5c-68.6-3.4-134-6.7-212.8,22.7
		c-41.7,15.5-146.2,54.5-195.8,157.7c-19.3,40.2-20.9,89.6-24.2,188.3c-0.5,16.7-1.5,64,24.2,111c5.3,9.6,16.8,30.7,26.7,28.8
		c16.6-3,0.1-65.2,32.1-108.2c6.7-9,22.9-27.1,122.6-48.2c75.5-16,137-20.7,180.3-22.4c98.6-3.8,148.5-5.2,176.7,22.4
		c11.2,11,22.1,27.8,46.9,37.4c27.2,10.6,52.9,5.4,61.3,3.6c60.1-12.9,94-71.7,133.4-139.9
		C1209.9,1249.7,1222.4,1227.5,1218.5,1205.9L1218.5,1205.9z"/>
	<path class="st1" d="M1649.9,1548.6c-34.3,5.7-73.3,47-151.4,129.7c-49,51.8-73.4,78.2-72.1,97.4c5.9,86.3,251.9,129,277.7,133.4
		c63,10.9,138.6,23.2,233.6,0c90.5-22.2,150.6-64.9,190.5-93.8c69.9-50.7,127.1-92.2,157-169.5c18-46.5,12-110.1,0-237.2
		c-6.5-68.8-14.3-100.7-39.1-115.4c-20.6-12.2-34.4-1.8-96.8,0c-75.5,2.1-117.6-11.4-121.5,0c-2.3,6.7,11.9,17.6,40.5,38.9
		c52.9,39.6,68.6,40.9,81,60c21.2,32.5,7.1,76.5,0,98.5c-30.4,94.8-128.3,131.2-135.1,133.6c-61.4,21.8-115.6,9.7-159.5,0
		C1732.2,1597,1716.2,1537.6,1649.9,1548.6L1649.9,1548.6z"/>
	<path class="st2" d="M2377.4,1468.1c0-1.5,0-3.8-0.1-6.5c-1-60.5-2.5-159.2-52.2-241.5c-25.6-46.2-53.4-80.6-75.4-104.3
		c-29.4-31.8-55.6-52.2-74.6-66.9c-23.4-18.1-55.9-42.9-103.8-64.8c-15.1-6.9-28.2-11.9-38-15.4l-37.9-10.6
		c-43.4-8.9-91.5-14.7-143.7-14.4c-263.3,1.1-456.3,153.2-535.8,224.7c-108.2-77.2-217.9-159.3-347.6-197.1
		c-16.3-4.7-32.6-8.9-48.8-12.4c0,0-0.1,0-0.2,0c-58.9-12.8-117.2-17.6-173.9-12.9h-0.1c-50.7,4.2-100.2,15.9-148,36
		c-0.1,0-0.2,0.1-0.3,0.1c-37.2,15.7-73.3,36.5-108,62.8c-19.2,16.7-38.4,33.4-57.6,50.1c-29.3,29.8-146.1,155.8-152.8,352.3
		c-8.2,243.1,159,395.9,182.6,416.7c22.8,20.4,46.3,38.6,70.3,54.6c0,0.1,0.1,0.1,0.2,0.1c205.8,137.3,451.4,116.4,676.5-6
		c55-29.9,105.8-68.9,160.7-97.1c29.9,24.9,266.9,217.5,528.4,187.6c43.1-4.9,158.4-18.2,259.7-95.1c45.1-34.3,80.8-76.1,88.9-85.8
		c45.4-54.1,69.9-103.1,77.6-119.2C2374.6,1596.8,2377.5,1502.2,2377.4,1468.1L2377.4,1468.1z M405.7,1496.8
		c2.1-30.3-2.9-64.1,0-93.9c16.7-173.8,163.3-324.7,338.7-338.6c182.5-14.4,334,69.2,474,174.8l-190.9,152.2
		c-180.5-133.4-465.5-148.5-597.5,57.8L405.7,1496.8L405.7,1496.8z M920.2,1471.9c-82.3,87.9-209.2,136.7-332.6,129.2
		c-20.2-1.2-97.3-20.6-102.7-41.8c-6.4-25.1,47.8-82.8,67.2-97.4c98.8-74.4,246-63.5,348.3-13.1c11.4,5.6,20.7,10.9,27.1,14.9
		C925.9,1465.6,923.4,1468.5,920.2,1471.9L920.2,1471.9z M1215.5,1775.7L1215.5,1775.7c-196.3,117.1-404.6,178.4-604.1,59.4
		c-65.4-39-156.4-131.6-179.4-205.1c-0.7-2.2-1.2-7.1,2.1-6.4c33,34.7,86.4,59,133.1,67.9c264.9,51,522.8-210,719-352
		c4.2-3.1,8.5-6.2,12.7-9.3c22.8-16.8,45.3-34.3,67.9-52c80.1-62.5,160.9-126.4,255.1-166.7c184.7-78.9,395.1-67.3,527.3,96.9
		c-145.6,8.4-281.4,90.8-399,171.3c-110.7,75.8-239.2,188.9-377.2,290.3C1321.7,1707.7,1269.1,1743.8,1215.5,1775.7L1215.5,1775.7z
		 M2112.8,1397.8c52.9,57.2-44.1,130.9-93.4,150.4c-92.5,36.6-184.6,21.6-272.1-20.9c-3.8-5,90.8-70.9,99.9-77
		c43.5-28.8,113.4-76.6,164.5-80.2C2043.6,1367.9,2089.9,1373.2,2112.8,1397.8L2112.8,1397.8z M2092.1,1808.9
		c-198.7,153.5-452.5,78.7-628.9-69.6l199.4-154.4c119.2,76.3,272.1,111.3,402.1,39.4c90.1-49.8,169.2-175.3,84.1-264.8
		c-5.5-5.3-13.4-11.8-23.9-17.7c-10.8-6-20.7-9.2-28.2-11c13.5-4.7,88.2-30.1,121.2,5.4c5.3,5.7,14.1,41.1,16.5,51.3
		C2270.9,1544.9,2220.5,1709.7,2092.1,1808.9L2092.1,1808.9z"/>
</g>
<g>
	<path class="st2" d="M3361.9,1423.1c-27.9,0-49.3-8.3-64.2-25c-14.9-16.7-20.5-39-16.9-66.9l2.7-21.6h-152.7
		c-29.7,0-44.6-15.3-44.6-45.9s14.9-44.6,44.6-44.6h164.9l8.1-60.8c1.8-16.2,8.1-29.1,18.9-38.5c10.8-9.5,24.3-14.2,40.6-14.2h612.2
		c27.9,0,49.5,8.3,64.9,25c15.3,16.7,21.6,39,18.9,66.9l-2.7,21.6h160.8c29.7,0,44.6,14.9,44.6,44.6s-14.9,45.9-44.6,45.9h-168.9
		l-5.4,60.8c-0.9,16.2-6.8,29.1-17.6,38.5s-24.3,14.2-40.5,14.2H3361.9L3361.9,1423.1z M3124,2075.9c-34.2-37.8-22.5-61.7,35.1-71.6
		c134.2-26.1,238.3-58.1,312.2-96h-137.9c-26.1,0-47.3-8.1-63.5-24.3s-24.3-37.4-24.3-63.5V1561c0-26.1,8.1-47.3,24.3-63.5
		s37.4-24.3,63.5-24.3h689.3c26.1,0,47.3,8.1,63.5,24.3s24.3,37.4,24.3,63.5v259.5c0,26.1-8.1,47.3-24.3,63.5
		c-16.2,16.2-37.4,24.3-63.5,24.3h-151.4c97.3,27,204.5,59.5,321.7,97.3c27,9,39.6,19.4,37.8,31.1c-1.8,10.8-15.8,25.2-41.9,43.3
		c-20.7,14.4-40.5,18-59.5,10.8c-89.2-33.3-187.4-66.2-294.6-98.7c-28.8-9-45.3-20.5-49.3-34.5c-4.1-14,4.3-29.5,25-46.6l2.7-2.7
		h-294.6l43.2,28.4c10.8,6.3,16.2,13.3,16.2,20.9s-4.1,13.8-12.2,18.2c-100.9,52.2-227.1,92.3-378.4,120.3
		C3161.4,2100.7,3140.2,2093.9,3124,2075.9L3124,2075.9z M3171.3,1174.4c-37.8,0-56.8-18.5-56.8-55.4v-87.8
		c0-23.4,7.2-42.3,21.6-56.8c14.4-14.4,33.3-21.6,56.8-21.6h416.3v-31.1c0-41.4,21.2-62.2,63.5-62.2s62.2,20.7,62.2,62.2v31.1h410.9
		c26.1,0,47.3,8.1,63.5,24.3c16.2,16.2,24.3,37.4,24.3,63.5v75.7c0,38.8-19.4,58.1-58.1,58.1s-59.5-19.4-59.5-58.1v-32.4
		c0-21.6-10.8-32.4-32.4-32.4h-824.4c-21.6,0-32.4,10.8-32.4,32.4v35.1C3226.7,1156,3208.2,1174.4,3171.3,1174.4L3171.3,1174.4z
		 M3364.6,1594.8h620.3V1565c0-13.5-6.8-20.3-20.3-20.3H3397c-21.6,0-32.4,10.8-32.4,32.4L3364.6,1594.8L3364.6,1594.8z
		 M3364.6,1715h620.3v-51.4h-620.4L3364.6,1715L3364.6,1715z M3386.2,1836.7h566.3c21.6,0,32.4-10.8,32.4-32.4V1784h-620.4v31.1
		C3364.6,1829.5,3371.8,1836.7,3386.2,1836.7L3386.2,1836.7z M3410.5,1355.5H3597c1.8-11.7,4.5-30.2,8.1-55.4h-209.5l-5.4,32.4
		C3389.3,1347.9,3396.1,1355.5,3410.5,1355.5L3410.5,1355.5z M3405.1,1228.5h206.8l4.1-54.1h-204.1L3405.1,1228.5z M3702.4,1355.5
		h228.4l4.1-55.4h-227.1L3702.4,1355.5L3702.4,1355.5z M3716,1228.5h225.7l2.7-31.1c0.9-15.3-6.3-23-21.6-23H3720L3716,1228.5
		L3716,1228.5z"/>
	<path class="st2" d="M4849.9,2055.6c-26.1,0-47.3-8.1-63.5-24.3s-24.3-37.4-24.3-63.5v-335.2c0-26.1,8.1-47.3,24.3-63.5
		c16.2-16.2,37.4-24.3,63.5-24.3h224.4c12.6-27,21.6-47.8,27-62.2h-46c-24.3,0-36.5-12.2-36.5-36.5v-185.2
		c-77.5,83.8-167.1,159.5-269,227.1c-15.3,9.9-28.6,14.2-39.9,12.8c-11.3-1.3-23.2-8.3-35.8-20.9c-17.1-17.1-24.3-32.2-21.6-45.3
		c2.7-13.1,15.3-25.9,37.8-38.5c99.1-59.5,183.8-127.9,254.1-205.4c8.1-9.9,18.7-16.2,31.8-18.9c13-2.7,25.9-1.3,38.5,4.1l4,1.3
		v-116.2c0-21.6-10.8-32.4-32.4-32.4h-91.9l28.4,10.8c13.5,4.5,15.8,11.7,6.8,21.6c-59.5,63.1-130.2,122.1-212.2,177.1
		c-25.2,15.3-48.2,13.5-68.9-5.4c-32.4-29.7-27.5-56.3,14.9-79.7c68.5-42.3,123.4-83.8,164.9-124.3h-156.8c-33.4,0-50-16.7-50-50
		s16.7-50,50-50h373c26.1,0,47.3,8.1,63.5,24.3c16.2,16.2,24.3,37.4,24.3,63.5v406.8l101.4,17.6c-5.4-6.3-11.5-12.2-18.2-17.6
		c-6.8-5.4-5.6-10.3,3.4-14.9c117.1-61.3,218-136.5,302.7-225.7c9.9-11.7,23-19.1,39.2-22.3c16.2-3.2,32.4-1.6,48.7,4.7l4,1.3
		v-105.4c0-21.6-10.8-32.4-32.4-32.4h-121.6l28.4,10.8c13.5,4.5,15.8,11.7,6.8,21.6c-56.8,61.3-126.6,119.8-209.5,175.7
		c-24.3,16.2-47.8,14.4-70.3-5.4c-32.4-28.8-27.5-54.9,14.9-78.4c64-39.6,117.1-81.1,159.5-124.3h-128.4c-33.4,0-50-16.7-50-50
		s16.7-50,50-50h382.5c26.1,0,47.3,8.1,63.5,24.3c16.2,16.2,24.3,37.4,24.3,63.5v408.2c0,38.8-19.4,58.1-58.1,58.1
		s-59.5-19.4-59.5-58.1v-187.9c-83.8,89.2-178,167.2-282.5,233.8c-13.5,8.1-27.7,11-42.6,8.8c-14.9-2.2-27.7-10.1-38.5-23.7
		l-1.4-1.3l-1.4-1.3c-3.6,6.3-9,15.8-16.2,28.4c-15.3,28.8-26.6,50-33.8,63.5h341.9c26.1,0,47.3,8.1,63.5,24.3s24.3,37.4,24.3,63.5
		v335.2c0,26.2-8.1,47.3-24.3,63.5s-37.4,24.3-63.5,24.3L4849.9,2055.6L4849.9,2055.6z M4885,1748.8h612.2v-74.3
		c0-21.6-10.8-32.4-32.4-32.4h-547.4c-21.6,0-32.4,10.8-32.4,32.4L4885,1748.8L4885,1748.8z M4917.5,1957h547.4
		c21.6,0,32.4-10.8,32.4-32.4v-78.4H4885v78.4C4885,1946.2,4895.9,1957,4917.5,1957L4917.5,1957z"/>
	<path class="st2" d="M6104.1,2021.8c-18-36-10.8-65.8,21.6-89.2c52.2-39.6,93.7-73.4,124.3-101.4v-205.4
		c0-21.6-10.8-32.4-32.4-32.4h-66.2c-38.8,0-58.1-19.4-58.1-58.1s19.4-58.1,58.1-58.1h152.7c19.8,0,35.6,5.9,47.3,17.6
		c11.7,11.7,17.6,27.5,17.6,47.3v277.1c58.6,89.2,166.2,136.5,323,141.9c164,6.3,347.3,5,550.1-4.1c29.7-1.8,48.4,2,56.1,11.5
		c7.6,9.5,7,28.6-2,57.4c-6.3,18.9-13.8,31.8-22.3,38.5c-8.6,6.8-22.3,10.6-41.2,11.5c-194.6,6.3-374.8,7.2-540.6,2.7
		c-86.5-3.6-159.5-17.1-219-40.5c-61.3-25.2-112.6-63.5-154.1-114.9c-24.3,24.3-62.2,60.4-113.5,108.1c-1.8,1.8-3.2,3.2-4,4.1
		C6160,2072.3,6127.5,2067.8,6104.1,2021.8L6104.1,2021.8z M6310.9,1363c-13.5,0.5-27.9-7-43.2-22.3c-0.9-0.9-2.3-2.2-4.1-4.1
		c-18.9-15.3-34.2-27-46-35.1c-18.9-15.3-40.1-30.2-63.5-44.6c-37-22.5-39.7-49.5-8.1-81.1c20.7-20.7,44.1-24.3,70.3-10.8
		c56.8,30.6,104.5,62.6,143.3,96c13.5,12.6,19.8,25.2,18.9,37.8c-0.9,11.7-8.6,24.8-23,39.2
		C6339.3,1354.2,6324.4,1362.5,6310.9,1363L6310.9,1363z M6306.9,1073.1c-16.2-16.2-32-30.2-47.3-41.9
		c-18.9-16.2-39.2-31.1-60.8-44.6c-37.8-24.3-39.7-51.8-5.4-82.4c21.6-19.8,45.5-22.1,71.6-6.8c47.8,27.9,92.8,60.8,135.1,98.7
		c13.5,13.5,19.4,26.1,17.6,37.8c-1.8,10.8-9.9,23.4-24.3,37.8C6361.8,1101.4,6333,1101.9,6306.9,1073.1L6306.9,1073.1z
		 M7092.1,1892.1c-40.5,0-65.8-14-75.7-41.9c-13.5-40.5,8.1-59.9,64.9-58.1h37.8c13.5,0,20.3-7.2,20.3-21.6v-94.6h-200v152.7
		c0,36.9-18.5,55.4-55.4,55.4s-56.8-18.5-56.8-55.4v-152.7h-193.3v154.1c0,38.8-19.4,58.1-58.1,58.1s-58.1-19.4-58.1-58.1v-546
		c0-26.1,8.1-47.3,24.3-63.5s37.4-24.3,63.5-24.3h256.8c-46-23.4-99.1-47.3-159.5-71.6c-41.5-17.1-44.2-40.6-8.1-70.3
		c18-15.3,36.9-19.4,56.8-12.2c46,18,93.7,37.4,143.3,58.1c53.1-27,101.8-57.2,146-90.5h-469c-32.4,0-48.7-16.7-48.7-50
		s16.2-48.7,48.7-48.7h570.3c35.1,0,56.5,9,64.2,27c7.6,18-0.7,43.2-25,75.7c-46.9,50.5-106.8,95.5-179.8,135.1
		c34.2,16.2,64.4,32,90.5,47.3h86.5c23.4,0,42.3,7.2,56.8,21.6c14.4,14.4,21.6,33.3,21.6,56.8v497.4c0,29.7-3.2,51.8-9.5,66.2
		c-7.2,16.2-20.3,28.4-39.2,36.5C7185.8,1884.4,7147,1890.3,7092.1,1892.1L7092.1,1892.1z M6633.9,1388h193.3v-98.7h-160.8
		c-21.6,0-32.4,10.8-32.4,32.4V1388L6633.9,1388z M6633.9,1581.2h193.3v-101.4h-193.3V1581.2z M6939.4,1388h200v-66.2
		c0-21.6-10.8-32.4-32.4-32.4h-167.6V1388L6939.4,1388z M6939.4,1581.2h200v-101.4h-200V1581.2z"/>
</g>
</svg>
