<?xml version="1.0" encoding="UTF-8"?>
<svg id="_圖層_1" data-name="圖層 1" xmlns="http://www.w3.org/2000/svg" viewBox="0 0 7576.44 2914.02">
  <defs>
    <style>
      .cls-1 {
        fill: #006aff;
      }

      .cls-2 {
        fill: #ffc82c;
      }
    </style>
  </defs>
  <g>
    <path class="cls-1" d="M2194.45,1209.49c1.04-8.77-.04-36.21-93.76-86.54-75.9-40.77-202.84-108.95-378.63-90.15-134.76,14.41-226.6,72.26-306.51,122.61-134.55,84.76-118.89,118.86-317.33,274.06-16.07,12.56-128.17,99.28-286.57,176.11-102.19,49.57-151.5,60.01-200.24,51.07-62.74-11.51-126.95-32.45-126.95-32.45-51.11-16.67-70.38-27.48-79.64-18.62-17.4,16.65,17.19,86.79,55.14,135.91,19.38,25.08,67.31,80.51,187.51,135.13,96.15,43.69,190.66,86.64,302.91,72.12,49.24-6.37,78.36-20.75,252.42-133.42,202.67-131.19,304-196.78,367.82-246.38,169.09-131.43,168.97-160.08,263.24-199.23,136.12-56.53,230.79-89.96,230.79-89.96,78.81-27.83,126.42-41.74,129.82-70.25Z"/>
    <path class="cls-2" d="M1218.48,1205.89c-3-16.58-15.69-48.35-134.69-97.36-72.11-29.7-152.02-62.61-270.45-68.51-68.6-3.42-133.97-6.68-212.76,22.66-41.72,15.54-146.23,54.46-195.78,157.65-19.31,40.21-20.94,89.58-24.19,188.32-.55,16.71-1.55,64,24.19,110.98,5.27,9.62,16.8,30.66,26.68,28.85,16.59-3.03.09-65.23,32.06-108.18,6.68-8.97,22.88-27.06,122.61-48.22,75.47-16.01,137.05-20.69,180.3-22.37,98.63-3.82,148.52-5.16,176.7,22.37,11.23,10.98,22.09,27.76,46.88,37.4,27.22,10.58,52.87,5.41,61.3,3.61,60.07-12.89,94.04-71.68,133.42-139.86,25.14-43.51,37.63-65.71,33.72-87.32Z"/>
    <path class="cls-2" d="M1649.94,1548.57c-34.29,5.69-73.35,47.03-151.45,129.71-48.97,51.84-73.43,78.15-72.12,97.36,5.88,86.26,251.93,128.96,277.66,133.42,62.97,10.93,138.64,23.24,233.59,0,90.47-22.15,150.64-64.87,190.49-93.76,69.88-50.65,127.13-92.15,157.01-169.48,17.96-46.48,11.97-110.05,0-237.19-6.48-68.78-14.33-100.67-39.1-115.43-20.56-12.24-34.43-1.77-96.77,0-75.46,2.14-117.61-11.43-121.49,0-2.29,6.74,11.94,17.55,40.48,38.9,52.95,39.6,68.57,40.87,81.01,59.97,21.16,32.48,7.05,76.52,0,98.53-30.36,94.78-128.29,131.18-135.1,133.59-61.42,21.75-115.64,9.73-159.52,0-122.48-27.15-138.45-86.6-204.68-75.62Z"/>
    <path d="M2377.41,1468.06c0-1.5-.03-3.75-.07-6.47-.96-60.54-2.53-159.25-52.22-241.54-25.6-46.22-53.4-80.62-75.37-104.35-29.45-31.81-55.57-52.17-74.61-66.86-23.39-18.06-55.85-42.87-103.79-64.75-15.11-6.9-28.22-11.9-37.97-15.38l-37.95-10.57c-43.4-8.93-91.53-14.65-143.65-14.43-263.3,1.12-456.35,153.18-535.77,224.67-108.24-77.17-217.86-159.35-347.63-197.08-16.3-4.74-32.57-8.89-48.79-12.44-.05,0-.11-.02-.16-.04-58.91-12.83-117.15-17.57-173.89-12.9h-.09c-50.69,4.19-100.23,15.88-147.98,35.99-.11.05-.23.11-.34.14-37.17,15.7-73.29,36.49-108.05,62.84-19.21,16.68-38.42,33.37-57.61,50.05-29.26,29.84-146.09,155.84-152.75,352.3-8.25,243.13,158.95,395.86,182.62,416.74,22.82,20.42,46.27,38.58,70.27,54.58.05.05.11.09.16.11,205.83,137.32,451.36,116.4,676.53-5.99,55.04-29.92,105.82-68.9,160.72-97.11,29.88,24.93,266.91,217.54,528.39,187.57,43.07-4.94,158.44-18.16,259.71-95.09,45.13-34.28,80.79-76.14,88.88-85.78,45.38-54.1,69.85-103.06,77.62-119.24,50.98-106.28,53.93-200.83,53.77-234.98ZM405.73,1496.82c2.1-30.34-2.89-64.06,0-93.95,16.7-173.8,163.27-324.73,338.72-338.58,182.49-14.41,333.96,69.2,474.03,174.78l-190.87,152.18c-180.46-133.37-465.49-148.53-597.51,57.85l-24.37,47.72ZM920.22,1471.87c-82.34,87.95-209.25,136.67-332.59,129.25-20.15-1.21-97.29-20.56-102.67-41.77-6.38-25.14,47.75-82.75,67.23-97.41,98.75-74.36,245.95-63.46,348.28-13.06,11.42,5.62,20.65,10.95,27.11,14.89-1.66,1.87-4.2,4.71-7.37,8.09ZM1215.54,1775.7h-.02c-196.28,117.08-404.56,178.38-604.06,59.42-65.41-39-156.41-131.57-179.44-205.12-.71-2.23-1.21-7.13,2.08-6.45,32.96,34.73,86.45,58.96,133.08,67.94,264.9,50.98,522.78-209.97,719.01-352.01,4.24-3.06,8.48-6.17,12.7-9.3,22.79-16.82,45.33-34.33,67.92-51.97,80.13-62.49,160.86-126.42,255.12-166.69,184.68-78.88,395.11-67.26,527.32,96.86-145.63,8.36-281.45,90.78-399.03,171.27-110.72,75.78-239.21,188.92-377.21,290.33-51.32,37.72-103.95,73.8-157.48,105.73ZM2112.76,1397.82c52.95,57.18-44.15,130.87-93.45,150.4-92.46,36.6-184.61,21.58-272.06-20.86-3.83-5.04,90.76-70.93,99.92-76.99,43.49-28.85,113.43-76.6,164.5-80.2,31.97-2.25,78.26,2.99,101.1,27.65ZM2092.09,1808.9c-198.69,153.48-452.47,78.7-628.87-69.58l199.45-154.43c119.2,76.26,272.1,111.33,402.1,39.4,90.09-49.84,169.18-175.35,84.14-264.77-5.46-5.28-13.35-11.84-23.89-17.68-10.77-5.97-20.72-9.2-28.19-11.02,13.53-4.71,88.24-30.06,121.2,5.43,5.33,5.74,14.11,41.11,16.46,51.28,36.38,157.35-13.97,322.17-142.4,421.38Z"/>
  </g>
  <g>
    <path d="M3361.86,1423.11c-27.94,0-49.33-8.32-64.2-25-14.87-16.66-20.51-38.96-16.89-66.9l2.7-21.62h-152.72c-29.73,0-44.6-15.31-44.6-45.95s14.87-44.6,44.6-44.6h164.89l8.11-60.82c1.79-16.22,8.11-29.06,18.92-38.52,10.81-9.46,24.33-14.19,40.55-14.19h612.25c27.91,0,49.54,8.34,64.87,25,15.31,16.68,21.62,38.98,18.92,66.9l-2.71,21.62h160.84c29.73,0,44.6,14.87,44.6,44.6s-14.87,45.95-44.6,45.95h-168.94l-5.41,60.82c-.91,16.22-6.76,29.06-17.57,38.52-10.81,9.46-24.32,14.19-40.54,14.19h-623.06ZM3123.99,2075.9c-34.25-37.84-22.53-61.73,35.14-71.63,134.25-26.12,238.31-58.11,312.2-95.96h-137.86c-26.14,0-47.3-8.11-63.52-24.33s-24.33-37.38-24.33-63.52v-259.5c0-26.12,8.11-47.3,24.33-63.52,16.22-16.22,37.38-24.33,63.52-24.33h689.28c26.12,0,47.3,8.11,63.52,24.33,16.22,16.22,24.33,37.4,24.33,63.52v259.5c0,26.14-8.11,47.3-24.33,63.52-16.22,16.22-37.4,24.33-63.52,24.33h-151.37c97.31,27.03,204.52,59.47,321.67,97.31,27.03,9,39.64,19.37,37.84,31.09-1.82,10.81-15.78,25.21-41.9,43.25-20.74,14.4-40.54,18.01-59.47,10.81-89.2-33.34-187.42-66.23-294.64-98.66-28.84-9-45.27-20.48-49.33-34.46-4.06-13.96,4.26-29.5,25.01-46.63l2.7-2.7h-294.63l43.25,28.38c10.81,6.31,16.22,13.3,16.22,20.95s-4.06,13.75-12.16,18.25c-100.92,52.25-227.06,92.35-378.43,120.29-26.14,4.5-47.3-2.26-63.52-20.27ZM3171.3,1174.43c-37.84,0-56.76-18.46-56.76-55.41v-87.85c0-23.42,7.2-42.34,21.62-56.76,14.4-14.4,33.32-21.62,56.76-21.62h416.27v-31.09c0-41.43,21.16-62.17,63.52-62.17s62.17,20.74,62.17,62.17v31.09h410.86c26.13,0,47.31,8.11,63.52,24.33,16.22,16.22,24.33,37.4,24.33,63.52v75.69c0,38.75-19.39,58.12-58.11,58.12s-59.47-19.37-59.47-58.12v-32.44c0-21.62-10.81-32.44-32.44-32.44h-824.44c-21.62,0-32.44,10.81-32.44,32.44v35.14c0,36.95-18.48,55.41-55.41,55.41ZM3364.57,1594.76h620.35v-29.74c0-13.52-6.76-20.27-20.27-20.27h-567.64c-21.62,0-32.44,10.81-32.44,32.44v17.57ZM3364.57,1715.04h620.35v-51.36h-620.35v51.36ZM3386.19,1836.68h566.29c21.62,0,32.44-10.81,32.44-32.44v-20.27h-620.35v31.08c0,14.42,7.2,21.62,21.62,21.62ZM3410.52,1355.53h186.51c1.79-11.7,4.5-30.18,8.11-55.41h-209.49l-5.41,32.44c-.91,15.33,5.85,22.98,20.27,22.98ZM3405.11,1228.49h206.78l4.06-54.06h-204.08l-6.76,54.06ZM3702.45,1355.53h228.41l4.05-55.41h-227.06l-5.41,55.41ZM3715.97,1228.49h225.7l2.71-31.09c.89-15.31-6.31-22.98-21.63-22.98h-202.73l-4.05,54.06Z"/>
    <path d="M4849.9,2055.63c-26.14,0-47.3-8.11-63.52-24.33-16.22-16.22-24.33-37.38-24.33-63.52v-335.18c0-26.12,8.11-47.31,24.33-63.52,16.22-16.22,37.38-24.33,63.52-24.33h224.35c12.61-27.03,21.62-47.75,27.03-62.17h-45.95c-24.33,0-36.49-12.16-36.49-36.49v-185.16c-77.5,83.8-167.14,159.48-268.96,227.06-15.33,9.93-28.61,14.19-39.87,12.84-11.28-1.35-23.21-8.32-35.81-20.95-17.13-17.11-24.33-32.2-21.62-45.28,2.7-13.05,15.31-25.89,37.84-38.52,99.1-59.47,183.81-127.93,254.09-205.43,8.11-9.9,18.69-16.22,31.76-18.92,13.05-2.7,25.89-1.35,38.52,4.05l4.05,1.35v-116.23c0-21.62-10.81-32.44-32.44-32.44h-91.9l28.38,10.81c13.51,4.52,15.75,11.72,6.76,21.62-59.47,63.08-130.21,122.1-212.19,177.05-25.24,15.33-48.21,13.51-68.93-5.41-32.44-29.73-27.49-56.3,14.87-79.74,68.46-42.34,123.43-83.8,164.89-124.34h-156.78c-33.35,0-50.01-16.66-50.01-50.01s16.66-50.01,50.01-50.01h373.02c26.12,0,47.3,8.11,63.52,24.33,16.22,16.22,24.33,37.4,24.33,63.52v406.81l101.36,17.57c-5.41-6.29-11.49-12.16-18.25-17.57-6.76-5.41-5.64-10.35,3.38-14.87,117.12-61.26,218.04-136.5,302.74-225.71,9.9-11.7,22.98-19.13,39.19-22.3,16.22-3.15,32.44-1.56,48.66,4.73l4.05,1.35v-105.42c0-21.62-10.81-32.44-32.44-32.44h-121.64l28.38,10.81c13.51,4.52,15.75,11.72,6.76,21.62-56.76,61.28-126.6,119.84-209.49,175.7-24.33,16.22-47.77,14.42-70.28-5.41-32.44-28.83-27.49-54.95,14.87-78.39,63.96-39.64,117.12-81.09,159.48-124.34h-128.39c-33.35,0-50.01-16.66-50.01-50.01s16.66-50.01,50.01-50.01h382.48c26.12,0,47.3,8.11,63.52,24.33,16.22,16.22,24.33,37.4,24.33,63.52v408.16c0,38.75-19.39,58.12-58.11,58.12s-59.47-19.37-59.47-58.12v-187.86c-83.8,89.2-177.96,167.15-282.47,233.81-13.52,8.11-27.71,11.04-42.57,8.79-14.86-2.24-27.7-10.14-38.52-23.65l-1.35-1.35-1.35-1.35c-3.61,6.31-9.02,15.78-16.22,28.38-15.33,28.85-26.59,50.01-33.79,63.52h341.93c26.12,0,47.3,8.11,63.52,24.33,16.22,16.22,24.33,37.4,24.33,63.52v335.18c0,26.15-8.11,47.3-24.33,63.52-16.22,16.22-37.4,24.33-63.52,24.33h-689.28ZM4885.04,1748.83h612.24v-74.33c0-21.62-10.81-32.44-32.44-32.44h-547.37c-21.62,0-32.44,10.81-32.44,32.44v74.33ZM4917.47,1956.97h547.37c21.62,0,32.44-10.81,32.44-32.44v-78.39h-612.24v78.39c0,21.62,10.81,32.44,32.44,32.44Z"/>
    <path d="M6104.12,2021.84c-18.03-36.03-10.81-65.76,21.62-89.2,52.25-39.64,93.7-73.43,124.34-101.36v-205.43c0-21.62-10.81-32.44-32.44-32.44h-66.23c-38.75,0-58.11-19.37-58.11-58.12s19.36-58.11,58.11-58.11h152.72c19.81,0,35.59,5.87,47.3,17.57,11.7,11.72,17.57,27.5,17.57,47.3v277.07c58.56,89.2,166.24,136.5,323.02,141.91,163.98,6.31,347.34,4.96,550.07-4.05,29.73-1.8,48.42,2.03,56.09,11.49,7.64,9.46,6.97,28.59-2.03,57.44-6.31,18.92-13.75,31.76-22.3,38.52-8.57,6.76-22.3,10.58-41.22,11.49-194.62,6.29-374.84,7.2-540.61,2.7-86.5-3.61-159.48-17.13-218.95-40.54-61.29-25.24-112.64-63.52-154.08-114.88-24.33,24.33-62.17,60.38-113.53,108.12-1.82,1.79-3.17,3.15-4.05,4.05-41.45,36.94-73.89,32.44-97.31-13.51ZM6310.9,1362.97c-13.51.46-27.94-6.97-43.25-22.3-.91-.89-2.26-2.24-4.06-4.05-18.92-15.31-34.25-27.03-45.95-35.14-18.92-15.31-40.1-30.18-63.52-44.6-36.96-22.51-39.66-49.54-8.11-81.09,20.72-20.72,44.14-24.33,70.28-10.81,56.76,30.64,104.51,62.63,143.26,95.96,13.51,12.63,19.81,25.24,18.92,37.84-.91,11.72-8.58,24.79-22.98,39.19-16.22,16.22-31.08,24.56-44.6,25ZM6306.85,1073.06c-16.22-16.22-31.99-30.18-47.3-41.9-18.92-16.22-39.19-31.08-60.82-44.6-37.84-24.33-39.66-51.8-5.41-82.44,21.62-19.81,45.49-22.07,71.63-6.76,47.75,27.94,92.79,60.82,135.15,98.66,13.52,13.52,19.37,26.14,17.57,37.84-1.82,10.81-9.93,23.44-24.33,37.84-31.55,29.73-60.38,30.2-86.5,1.35ZM7092.09,1892.09c-40.55,0-65.78-13.96-75.69-41.9-13.51-40.54,8.11-59.91,64.87-58.11h37.84c13.52,0,20.27-7.2,20.27-21.62v-94.61h-200.03v152.73c0,36.95-18.48,55.41-55.41,55.41s-56.76-18.46-56.76-55.41v-152.73h-193.27v154.08c0,38.75-19.39,58.11-58.11,58.11s-58.11-19.36-58.11-58.11v-546.02c0-26.12,8.11-47.3,24.33-63.52,16.22-16.22,37.38-24.33,63.52-24.33h256.79c-45.95-23.42-99.13-47.3-159.48-71.63-41.45-17.11-44.16-40.55-8.11-70.28,18.01-15.31,36.94-19.37,56.76-12.16,45.95,18.03,93.7,37.4,143.26,58.12,53.15-27.03,101.81-57.21,145.97-90.55h-468.98c-32.44,0-48.66-16.66-48.66-50.01s16.22-48.66,48.66-48.66h570.34c35.14,0,56.53,9.02,64.2,27.03,7.64,18.03-.68,43.25-25,75.69-46.86,50.47-106.77,95.52-179.75,135.15,34.23,16.22,64.41,31.99,90.55,47.3h86.5c23.42,0,42.34,7.22,56.76,21.62,14.4,14.42,21.62,33.35,21.62,56.76v497.36c0,29.73-3.17,51.82-9.46,66.23-7.22,16.22-20.27,28.38-39.2,36.49-22.53,9.93-61.28,15.78-116.23,17.57ZM6633.92,1387.97h193.27v-98.66h-160.83c-21.62,0-32.44,10.81-32.44,32.44v66.23ZM6633.92,1581.24h193.27v-101.36h-193.27v101.36ZM6939.36,1387.97h200.03v-66.23c0-21.62-10.81-32.44-32.44-32.44h-167.59v98.66ZM6939.36,1581.24h200.03v-101.36h-200.03v101.36Z"/>
  </g>
</svg>